<?xml version="1.0" encoding="utf-8"?>
<!-- Generator: Adobe Illustrator 21.0.0, SVG Export Plug-In . SVG Version: 6.00 Build 0)  -->
<svg version="1.1" id="light" xmlns="http://www.w3.org/2000/svg" xmlns:xlink="http://www.w3.org/1999/xlink" x="0px" y="0px"
	 viewBox="0 0 24 24" enable-background="new 0 0 24 24" xml:space="preserve">
<path d="M23.5,21h-23C0.224,21,0,20.776,0,20.5S0.224,20,0.5,20h23c0.276,0,0.5,0.224,0.5,0.5S23.776,21,23.5,21z"/>
<path d="M6.5,21h-5C1.224,21,1,20.776,1,20.5V8c0-0.551,0.449-1,1-1h4c0.551,0,1,0.449,1,1v12.5C7,20.776,6.776,21,6.5,21z M2,20h4
	V8H2V20z"/>
<path d="M14.5,21h-5C9.224,21,9,20.776,9,20.5V4c0-0.551,0.449-1,1-1h4c0.551,0,1,0.449,1,1v16.5C15,20.776,14.776,21,14.5,21z
	 M10,20h4V4h-4V20z"/>
<path d="M22.5,21h-5c-0.276,0-0.5-0.224-0.5-0.5V11c0-0.551,0.449-1,1-1h4c0.551,0,1,0.449,1,1v9.5C23,20.776,22.776,21,22.5,21z
	 M18,20h4v-9h-4V20z"/>
</svg>
