<?xml version="1.0" encoding="utf-8"?>
<!-- Generator: Adobe Illustrator 21.0.0, SVG Export Plug-In . SVG Version: 6.00 Build 0)  -->
<svg version="1.1" id="_x31_" xmlns="http://www.w3.org/2000/svg" xmlns:xlink="http://www.w3.org/1999/xlink" x="0px" y="0px"
	 viewBox="0 0 24 24" enable-background="new 0 0 24 24" xml:space="preserve">
<path d="M12,13c-0.114,0-0.229-0.039-0.322-0.118C11.486,12.721,7,8.894,7,5c0-2.757,2.243-5,5-5s5,2.243,5,5
	c0,3.894-4.486,7.721-4.678,7.882C12.229,12.961,12.114,13,12,13z M12,1C9.794,1,8,2.794,8,5c0,2.869,2.997,5.895,4,6.828
	c1.003-0.933,4-3.959,4-6.828C16,2.794,14.206,1,12,1z"/>
<path d="M12,7c-1.103,0-2-0.897-2-2s0.897-2,2-2s2,0.897,2,2S13.103,7,12,7z M12,4c-0.552,0-1,0.449-1,1s0.448,1,1,1s1-0.449,1-1
	S12.552,4,12,4z"/>
<path d="M21.29,24H2.71c-0.706,0-1.383-0.301-1.856-0.825c-0.473-0.523-0.702-1.225-0.631-1.926L1.823,5.25
	C1.948,3.968,3.018,3,4.31,3H4.65c0.276,0,0.5,0.224,0.5,0.5S4.927,4,4.65,4H4.31C3.534,4,2.893,4.58,2.818,5.349L1.217,21.35
	c-0.043,0.427,0.092,0.836,0.379,1.155C1.88,22.819,2.286,23,2.71,23h18.58c0.424,0,0.83-0.181,1.114-0.496
	c0.287-0.318,0.422-0.728,0.379-1.154L21.183,5.35C21.107,4.58,20.466,4,19.69,4H19.35c-0.276,0-0.5-0.224-0.5-0.5S19.073,3,19.35,3
	h0.341c1.292,0,2.361,0.968,2.487,2.251l1.6,15.999c0.071,0.7-0.158,1.401-0.631,1.925C22.673,23.699,21.996,24,21.29,24z"/>
<path d="M1.75,14.01c-0.275,0-0.5-0.224-0.5-0.5s0.224-0.5,0.499-0.5L8.699,13C8.7,13,8.7,13,8.7,13c0.275,0,0.5,0.224,0.5,0.5
	S8.977,14,8.701,14L1.75,14.01C1.75,14.01,1.75,14.01,1.75,14.01z"/>
<path d="M9.117,23.775l-0.834-0.551l6.6-10C14.975,13.084,15.132,13,15.299,13l7.2-0.01l0.002,1L15.569,14L9.117,23.775z"/>
</svg>
