<?xml version="1.0" encoding="utf-8"?>
<!-- Generator: Adobe Illustrator 22.1.0, SVG Export Plug-In . SVG Version: 6.00 Build 0)  -->
<svg version="1.1" id="_x31_px" xmlns="http://www.w3.org/2000/svg" xmlns:xlink="http://www.w3.org/1999/xlink" x="0px" y="0px"
	 viewBox="0 0 24 24" enable-background="new 0 0 24 24" xml:space="preserve">
<path d="M0.77,15c-0.229,0-0.436-0.158-0.488-0.391C0.095,13.778,0,12.899,0,12C0,5.383,5.383,0,12,0c3.8,0,7.408,1.83,9.653,4.895
	c0.163,0.223,0.115,0.536-0.107,0.699c-0.225,0.163-0.536,0.116-0.699-0.108C18.789,2.677,15.482,1,12,1C5.935,1,1,5.935,1,12
	c0,0.826,0.087,1.63,0.258,2.391c0.061,0.269-0.109,0.537-0.379,0.597C0.842,14.996,0.806,15,0.77,15z"/>
<path d="M12,24c-3.8,0-7.408-1.83-9.653-4.895c-0.163-0.223-0.115-0.536,0.107-0.699c0.224-0.163,0.536-0.115,0.699,0.108
	C5.211,21.323,8.518,23,12,23c6.065,0,11-4.935,11-11c0-0.839-0.09-1.641-0.267-2.384c-0.064-0.269,0.102-0.538,0.37-0.602
	c0.271-0.066,0.538,0.102,0.603,0.371C23.901,10.203,24,11.083,24,12C24,18.617,18.617,24,12,24z"/>
<path d="M2.55,22c-0.272,0-0.495-0.218-0.5-0.492l-0.05-3c-0.002-0.134,0.05-0.263,0.144-0.359S2.366,18,2.5,18h3
	C5.776,18,6,18.224,6,18.5S5.776,19,5.5,19H3.009l0.041,2.492C3.055,21.768,2.834,21.995,2.558,22C2.556,22,2.553,22,2.55,22z"/>
<path d="M21.5,6h-3C18.224,6,18,5.776,18,5.5S18.224,5,18.5,5H21V2.5C21,2.224,21.224,2,21.5,2S22,2.224,22,2.5v3
	C22,5.776,21.776,6,21.5,6z"/>
<path d="M12,11c-0.061,0-0.122-0.011-0.18-0.033l-6.5-2.5C5.127,8.393,5,8.207,5,8s0.127-0.393,0.32-0.467l6.5-2.5
	c0.115-0.044,0.244-0.044,0.359,0l6.5,2.5C18.873,7.607,19,7.793,19,8s-0.127,0.393-0.32,0.467l-6.5,2.5
	C12.122,10.989,12.061,11,12,11z M6.893,8L12,9.964L17.107,8L12,6.036L6.893,8z"/>
<path d="M12,19c-0.061,0-0.122-0.011-0.18-0.033l-6.5-2.5C5.127,16.393,5,16.207,5,16V8c0-0.276,0.224-0.5,0.5-0.5S6,7.724,6,8
	v7.657l6,2.308l6-2.308V8c0-0.276,0.224-0.5,0.5-0.5S19,7.724,19,8v8c0,0.207-0.127,0.393-0.32,0.467l-6.5,2.5
	C12.122,18.989,12.061,19,12,19z"/>
<path d="M12,19c-0.276,0-0.5-0.224-0.5-0.5v-8c0-0.276,0.224-0.5,0.5-0.5s0.5,0.224,0.5,0.5v8C12.5,18.776,12.276,19,12,19z"/>
</svg>
