<?xml version="1.0" encoding="utf-8"?>
<!-- Generator: Adobe Illustrator 22.1.0, SVG Export Plug-In . SVG Version: 6.00 Build 0)  -->
<svg version="1.1" id="light" xmlns="http://www.w3.org/2000/svg" xmlns:xlink="http://www.w3.org/1999/xlink" x="0px" y="0px"
	 viewBox="0 0 24 24" style="enable-background:new 0 0 24 24;" xml:space="preserve">
<g>
	<path d="M14.5,15.2c-0.5,0-1-0.2-1.3-0.5l-1-1c-0.2-0.2-0.2-0.5,0-0.7s0.5-0.2,0.7,0l1,1c0.3,0.3,0.9,0.3,1.3,0
		c0.4-0.4,0.4-0.9,0-1.3l-3-3c-0.2-0.2-0.2-0.5,0-0.7s0.5-0.2,0.7,0l3,3c0.7,0.7,0.7,1.9,0,2.7C15.5,15,15,15.2,14.5,15.2z"/>
</g>
<g>
	<path d="M3.5,8.5C3.3,8.5,3.1,8.4,3,8.2c-0.1-0.3,0-0.5,0.3-0.7l4.3-1.8c0.9-0.4,2-0.2,2.7,0.5l0.6,0.6c0.2,0.2,0.2,0.5,0,0.7
		s-0.5,0.2-0.7,0L9.6,7C9.2,6.6,8.5,6.5,8,6.7L3.7,8.5C3.6,8.5,3.6,8.5,3.5,8.5z"/>
</g>
<g>
	<path d="M10.8,10.5c-0.5,0-0.9-0.2-1.3-0.5C9.1,9.5,8.9,8.9,9,8.3C9.1,7.7,9.4,7.2,10,7l3.5-1.7c0.7-0.3,1.4-0.4,2.1-0.1l5.2,2.1
		c0.3,0.1,0.4,0.4,0.3,0.7c-0.1,0.3-0.4,0.4-0.7,0.3l-5.2-2.1c-0.4-0.2-0.9-0.2-1.2,0l-3.5,1.7C10.2,8,10,8.2,10,8.5
		c0,0.3,0,0.5,0.2,0.7c0.3,0.3,0.7,0.3,1,0.2l3.1-1.6c0.2-0.1,0.5,0,0.7,0.2c0.1,0.2,0,0.5-0.2,0.7l-3.1,1.6
		C11.4,10.4,11.1,10.5,10.8,10.5z"/>
</g>
<g>
	<path d="M12.5,17.1c-0.5,0-1-0.2-1.3-0.6l-1.3-1.3c-0.2-0.2-0.2-0.5,0-0.7s0.5-0.2,0.7,0l1.3,1.3c0.3,0.3,0.9,0.3,1.3,0
		s0.3-0.9,0-1.3l-1-1c-0.2-0.2-0.2-0.5,0-0.7s0.5-0.2,0.7,0l1,1c0.7,0.7,0.7,1.9,0,2.7C13.5,16.9,13,17.1,12.5,17.1z"/>
</g>
<g>
	<path d="M10.3,18.9c-0.5,0-0.9-0.2-1.3-0.5l-2.3-2.1c-0.9-0.8-2-1.2-3.2-1.2C3.2,15,3,14.8,3,14.5S3.2,14,3.5,14
		c1.4,0,2.8,0.5,3.9,1.5l2.3,2.1c0.4,0.3,0.9,0.3,1.3,0c0.4-0.4,0.4-0.9,0-1.3l-1-1c-0.2-0.2-0.2-0.5,0-0.7s0.5-0.2,0.7,0l1,1
		c0.7,0.7,0.7,1.9,0,2.7C11.3,18.7,10.8,18.9,10.3,18.9z"/>
</g>
<g>
	<path d="M18.1,15.5c-0.3,0-0.5,0-0.8-0.1l-1.9-0.6c-0.3-0.1-0.4-0.4-0.3-0.6c0.1-0.3,0.4-0.4,0.6-0.3l1.9,0.6
		c0.5,0.2,1.1,0.1,1.5-0.3l1.1-1c0.2-0.2,0.5-0.2,0.7,0c0.2,0.2,0.2,0.5,0,0.7l-1.1,1C19.2,15.3,18.6,15.5,18.1,15.5z"/>
</g>
<g>
	<path d="M23.5,16h-3c-0.3,0-0.5-0.2-0.5-0.5v-9C20,6.2,20.2,6,20.5,6h3C23.8,6,24,6.2,24,6.5v9C24,15.8,23.8,16,23.5,16z M21,15h2
		V7h-2V15z"/>
</g>
<g>
	<path d="M3.5,16h-3C0.2,16,0,15.8,0,15.5v-9C0,6.2,0.2,6,0.5,6h3C3.8,6,4,6.2,4,6.5v9C4,15.8,3.8,16,3.5,16z M1,15h2V7H1V15z"/>
</g>
</svg>
